<svg width="14" height="15" viewBox="0 0 14 15" fill="none" xmlns="http://www.w3.org/2000/svg">
<path d="M0 1.375C0 0.891751 0.391751 0.5 0.875 0.5H2.75876C3.1865 0.5 3.55154 0.809236 3.62186 1.23115L4.26876 5.11254C4.33191 5.49144 4.14055 5.86723 3.79697 6.03901L2.44235 6.71632C3.41911 9.14353 5.35647 11.0809 7.78368 12.0576L8.46099 10.703C8.63277 10.3595 9.00856 10.1681 9.38746 10.2312L13.2688 10.8781C13.6908 10.9485 14 11.3135 14 11.7412V13.625C14 14.1082 13.6082 14.5 13.125 14.5H11.375C5.09276 14.5 0 9.40724 0 3.125V1.375Z" fill="white"/>
</svg>
