<svg width="16" height="16" viewBox="0 0 16 16" fill="none" xmlns="http://www.w3.org/2000/svg">
<path d="M15.5806 4.92104C15.5721 4.28989 15.4531 3.66502 15.2289 3.07437C15.0345 2.57617 14.7375 2.12371 14.357 1.7459C13.9765 1.36809 13.5208 1.07325 13.0191 0.880208C12.4318 0.661339 11.8115 0.542993 11.1844 0.530208C10.377 0.494375 10.121 0.484375 8.07147 0.484375C6.02193 0.484375 5.75924 0.484375 4.95772 0.530208C4.33091 0.543087 3.71083 0.661432 3.12388 0.880208C2.62204 1.07312 2.16627 1.36791 1.78575 1.74574C1.40523 2.12356 1.10833 2.57609 0.914041 3.07437C0.693168 3.65699 0.574234 4.2728 0.562381 4.89521C0.526292 5.69771 0.515381 5.95187 0.515381 7.98687C0.515381 10.0219 0.515381 10.2819 0.562381 11.0785C0.57497 11.7019 0.693309 12.3169 0.914041 12.901C1.10865 13.3992 1.40578 13.8515 1.78643 14.2292C2.16707 14.6068 2.62288 14.9015 3.12472 15.0944C3.71007 15.322 4.33025 15.4489 4.95856 15.4694C5.76679 15.5052 6.02277 15.516 8.07231 15.516C10.1218 15.516 10.3845 15.516 11.1861 15.4694C11.8131 15.4571 12.4335 15.339 13.0207 15.1202C13.5224 14.9269 13.978 14.632 14.3584 14.2542C14.7389 13.8765 15.0359 13.4241 15.2306 12.926C15.4513 12.3427 15.5696 11.7277 15.5822 11.1035C15.6183 10.3019 15.6292 10.0477 15.6292 8.01187C15.6276 5.97687 15.6276 5.71854 15.5806 4.92104ZM8.06644 11.8352C5.9229 11.8352 4.18642 10.111 4.18642 7.98271C4.18642 5.85437 5.9229 4.13021 8.06644 4.13021C9.09548 4.13021 10.0824 4.5361 10.81 5.25858C11.5377 5.98106 11.9465 6.96096 11.9465 7.98271C11.9465 9.00445 11.5377 9.98435 10.81 10.7068C10.0824 11.4293 9.09548 11.8352 8.06644 11.8352ZM12.1009 4.88604C11.982 4.88615 11.8643 4.86299 11.7545 4.81788C11.6447 4.77278 11.5449 4.70661 11.4609 4.62317C11.3768 4.53973 11.3102 4.44066 11.2648 4.33161C11.2193 4.22257 11.196 4.10571 11.1961 3.98771C11.1961 3.86979 11.2195 3.75303 11.265 3.64409C11.3104 3.53515 11.377 3.43616 11.461 3.35279C11.545 3.26941 11.6447 3.20327 11.7544 3.15814C11.8641 3.11302 11.9817 3.08979 12.1005 3.08979C12.2192 3.08979 12.3368 3.11302 12.4465 3.15814C12.5563 3.20327 12.6559 3.26941 12.7399 3.35279C12.8239 3.43616 12.8905 3.53515 12.936 3.64409C12.9814 3.75303 13.0048 3.86979 13.0048 3.98771C13.0048 4.48437 12.6003 4.88604 12.1009 4.88604Z" fill="white"/>
</svg>
