<svg width="20" height="16" viewBox="0 0 20 16" fill="none" xmlns="http://www.w3.org/2000/svg">
<path d="M19.8432 2.11366C19.1424 2.42199 18.3896 2.63033 17.5981 2.72449C18.4147 2.23932 19.0257 1.47572 19.317 0.576161C18.5497 1.02865 17.71 1.34716 16.8344 1.51783C16.2455 0.893549 15.4655 0.479766 14.6156 0.340723C13.7656 0.201679 12.8932 0.345154 12.1337 0.748872C11.3743 1.15259 10.7703 1.79396 10.4156 2.57341C10.0609 3.35287 9.97533 4.22679 10.1721 5.05949C8.61749 4.98199 7.09665 4.58079 5.7083 3.88192C4.31995 3.18304 3.09512 2.20213 2.11329 1.00283C1.77757 1.57783 1.58454 2.24449 1.58454 2.95449C1.58416 3.59366 1.74269 4.22303 2.04604 4.78677C2.3494 5.35051 2.78821 5.83119 3.32354 6.18616C2.7027 6.16655 2.09556 5.99998 1.55264 5.70033V5.75033C1.55258 6.64678 1.86489 7.51564 2.43657 8.20949C3.00825 8.90334 3.80409 9.37944 4.68906 9.55699C4.11312 9.71176 3.5093 9.73455 2.9232 9.62366C3.17288 10.395 3.65925 11.0695 4.3142 11.5528C4.96916 12.036 5.75991 12.3038 6.57577 12.3187C5.19081 13.3982 3.48039 13.9837 1.71966 13.9812C1.40777 13.9812 1.09614 13.9632 0.786377 13.927C2.57362 15.068 4.65409 15.6735 6.77888 15.6712C13.9716 15.6712 17.9036 9.75616 17.9036 4.62616C17.9036 4.45949 17.8994 4.29116 17.8919 4.12449C18.6567 3.57531 19.3169 2.89524 19.8415 2.11616L19.8432 2.11366Z" fill="white"/>
</svg>
