<svg width="20" height="20" viewBox="0 0 20 20" fill="none" xmlns="http://www.w3.org/2000/svg">
<path fill-rule="evenodd" clip-rule="evenodd" d="M0.839234 2.36565C0.839234 1.95943 1.00176 1.56984 1.29105 1.2826C1.58035 0.995358 1.97272 0.833986 2.38184 0.833986H17.7592C17.962 0.833658 18.1628 0.873039 18.3502 0.949875C18.5376 1.02671 18.7079 1.13949 18.8514 1.28177C18.9948 1.42404 19.1086 1.59301 19.1862 1.77899C19.2637 1.96498 19.3036 2.16434 19.3035 2.36565V17.634C19.3037 17.8353 19.264 18.0348 19.1865 18.2208C19.109 18.4069 18.9954 18.576 18.852 18.7184C18.7086 18.8608 18.5384 18.9738 18.351 19.0508C18.1637 19.1278 17.9629 19.1674 17.7601 19.1673H2.38184C2.17919 19.1673 1.97853 19.1277 1.79132 19.0506C1.6041 18.9736 1.43401 18.8607 1.29076 18.7184C1.1475 18.5761 1.03389 18.4071 0.956417 18.2212C0.878943 18.0353 0.839123 17.836 0.839234 17.6348V2.36565ZM8.14773 7.82399H10.648V9.07065C11.0089 8.35399 11.9321 7.70899 13.3194 7.70899C15.9791 7.70899 16.6094 9.13649 16.6094 11.7557V16.6073H13.9178V12.3523C13.9178 10.8607 13.5569 10.019 12.6404 10.019C11.3689 10.019 10.8402 10.9265 10.8402 12.3523V16.6073H8.14773V7.82399ZM3.53166 16.4932H6.22409V7.70899H3.53166V16.4923V16.4932ZM6.60932 4.84399C6.6144 5.07288 6.57338 5.30048 6.48867 5.51341C6.40395 5.72635 6.27726 5.92035 6.11602 6.08401C5.95477 6.24768 5.76223 6.37771 5.54969 6.46649C5.33714 6.55527 5.10888 6.601 4.8783 6.601C4.64771 6.601 4.41945 6.55527 4.20691 6.46649C3.99436 6.37771 3.80182 6.24768 3.64057 6.08401C3.47933 5.92035 3.35264 5.72635 3.26793 5.51341C3.18321 5.30048 3.14219 5.07288 3.14727 4.84399C3.15723 4.3947 3.34399 3.96715 3.66753 3.65289C3.99108 3.33864 4.42569 3.16267 4.8783 3.16267C5.3309 3.16267 5.76552 3.33864 6.08906 3.65289C6.41261 3.96715 6.59936 4.3947 6.60932 4.84399Z" fill="white"/>
</svg>
