<svg width="18" height="18" viewBox="0 0 18 18" fill="none" xmlns="http://www.w3.org/2000/svg">
<path d="M9.07145 0.699219C4.45537 0.699219 0.678589 4.44089 0.678589 9.04922C0.678589 13.2159 3.75037 16.6742 7.76216 17.2992V11.4659H5.63037V9.04922H7.76216V7.20755C7.76216 5.11589 9.0127 3.96589 10.9347 3.96589C11.8495 3.96589 12.8063 4.12422 12.8063 4.12422V6.18255H11.7488C10.7081 6.18255 10.3807 6.82422 10.3807 7.48255V9.04922H12.7139L12.3363 11.4659H10.3807V17.2992C12.3585 16.9891 14.1594 15.9871 15.4583 14.4743C16.7573 12.9614 17.4688 11.0373 17.4643 9.04922C17.4643 4.44089 13.6875 0.699219 9.07145 0.699219Z" fill="white"/>
</svg>
