<svg width="74" height="29" viewBox="0 0 74 29" fill="none" xmlns="http://www.w3.org/2000/svg">
<g clip-path="url(#clip0_672_23062)">
<path d="M4.04518 6.01797C2.55008 6.6438 0.906466 8.41183 0.38736 10.6311C-0.270047 13.443 2.46573 14.6321 2.69012 14.2422C2.95423 13.7841 2.1999 13.6292 2.04463 12.1702C1.84395 10.2859 2.71999 8.18032 3.8225 7.25646C4.02744 7.08482 4.01769 7.32372 4.01769 7.76561C4.01769 8.55581 3.97403 15.6495 3.97403 17.13C3.97403 19.1332 3.89129 19.7658 3.74268 20.3909C3.59212 21.0243 3.35005 21.4523 3.53348 21.6172C3.7384 21.8016 4.61338 21.363 5.11991 20.656C5.72732 19.8081 5.93994 18.7898 5.97812 17.684C6.02422 16.351 6.02226 14.2357 6.02422 13.0292C6.02607 11.9226 6.04286 8.68237 6.00483 6.73444C5.9955 6.25665 4.67043 5.75539 4.0451 6.01739L4.04518 6.01797ZM57.136 15.393C57.0878 16.4345 56.8573 17.2485 56.5712 17.8227C56.0173 18.9342 54.8679 19.2794 54.3799 17.6815C54.114 16.8104 54.1016 15.3557 54.2928 14.1402C54.4874 12.902 55.0308 11.9668 55.9307 12.0511C56.8183 12.1345 57.2338 13.2783 57.136 15.393ZM42.1728 21.8544C42.1608 23.5848 41.8884 25.102 41.3044 25.5427C40.4761 26.1675 39.3628 25.6988 39.5933 24.4361C39.7973 23.3187 40.762 22.1776 42.1752 20.7833C42.1752 20.7833 42.1781 21.1013 42.1728 21.8544ZM41.9466 15.3829C41.8959 16.3315 41.65 17.2844 41.3817 17.8228C40.828 18.9344 39.6703 19.2819 39.1905 17.6816C38.8625 16.5882 38.941 15.1731 39.1033 14.2815C39.3139 13.1246 39.8244 12.0514 40.7413 12.0514C41.6327 12.0514 42.0722 13.0293 41.9466 15.3829ZM33.2784 15.3684C33.224 16.373 33.028 17.2128 32.7135 17.8228C32.1445 18.9267 31.0188 19.2768 30.5223 17.6816C30.1644 16.5313 30.2862 14.9629 30.4351 14.1156C30.6561 12.8583 31.2094 11.9669 32.0731 12.0514C32.9603 12.1381 33.3916 13.2783 33.2784 15.3684ZM73.0028 16.5419C72.7859 16.5419 72.6869 16.7654 72.6051 17.1417C72.321 18.4502 72.0225 18.7456 71.6375 18.7456C71.2075 18.7456 70.821 18.0977 70.7217 16.8008C70.6436 15.781 70.6562 13.9034 70.756 12.0358C70.7764 11.6521 70.6705 11.2724 69.6413 10.8985C69.1984 10.7377 68.5546 10.5009 68.2341 11.2746C67.3285 13.4606 66.9741 15.196 66.8908 15.901C66.8864 15.9375 66.8417 15.945 66.8338 15.8597C66.7807 15.2951 66.6619 14.269 66.6472 12.1131C66.6443 11.6925 66.5552 11.3345 66.091 11.0414C65.7897 10.8512 64.875 10.5148 64.5456 10.915C64.2602 11.2423 63.9297 12.1231 63.5863 13.1672C63.3072 14.0158 63.1128 14.5899 63.1128 14.5899C63.1128 14.5899 63.1165 12.3001 63.1198 11.4316C63.1213 11.1039 62.8965 10.9948 62.8288 10.975C62.5238 10.8864 61.9228 10.7385 61.6676 10.7385C61.3529 10.7385 61.2758 10.9145 61.2758 11.1708C61.2758 11.2044 61.2261 14.1855 61.2261 16.27C61.2261 16.3605 61.2261 16.4593 61.227 16.5643C61.053 17.5223 60.4884 18.8229 59.8743 18.8229C59.2596 18.8229 58.9695 18.2792 58.9695 15.7941C58.9695 14.3444 59.0131 13.714 59.0345 12.6655C59.0469 12.0615 59.0709 11.5978 59.0695 11.4925C59.065 11.1698 58.5069 11.0071 58.2472 10.947C57.9863 10.8864 57.7596 10.8629 57.5825 10.873C57.332 10.8871 57.1547 11.0515 57.1547 11.2776C57.1547 11.3988 57.156 11.6294 57.156 11.6294C56.8333 11.1222 56.3142 10.7692 55.9688 10.6669C55.0386 10.3906 54.0679 10.6354 53.3357 11.66C52.7538 12.474 52.403 13.3961 52.2649 14.7207C52.164 15.6892 52.1969 16.6712 52.3763 17.5018C52.1595 18.4389 51.7571 18.8229 51.3165 18.8229C50.6768 18.8229 50.213 17.7787 50.2668 15.9729C50.3023 14.7851 50.54 13.9515 50.7998 12.7456C50.9106 12.2316 50.8206 11.9624 50.5949 11.7045C50.3878 11.4679 49.9467 11.3471 49.3125 11.4957C48.8607 11.6017 48.2149 11.7157 47.624 11.8032C47.624 11.8032 47.6596 11.661 47.6889 11.4101C47.8426 10.0948 46.4133 10.2015 45.9572 10.6217C45.685 10.8725 45.4997 11.1683 45.4294 11.7002C45.3179 12.5443 46.0063 12.9424 46.0063 12.9424C45.7804 13.9763 45.2268 15.3269 44.6552 16.3034C44.349 16.8265 44.1148 17.2142 43.8125 17.6263C43.8114 17.4729 43.8105 17.3194 43.81 17.1667C43.8031 14.993 43.832 13.2823 43.8448 12.6657C43.8572 12.0618 43.8814 11.6103 43.8801 11.505C43.8767 11.269 43.7388 11.1798 43.4521 11.0669C43.1985 10.9671 42.8988 10.898 42.5878 10.8739C42.1954 10.8433 41.959 11.0515 41.9651 11.2976C41.9663 11.3441 41.9663 11.6295 41.9663 11.6295C41.6435 11.1223 41.1244 10.7693 40.7791 10.667C39.8488 10.3908 38.8781 10.6356 38.1459 11.6601C37.5641 12.4741 37.1831 13.6165 37.0751 14.7107C36.9746 15.7306 36.9931 16.5973 37.1302 17.3274C36.9823 18.0585 36.557 18.823 36.0762 18.823C35.4614 18.823 35.1116 18.2792 35.1116 15.7942C35.1116 14.3445 35.1551 13.7141 35.1765 12.6657C35.1889 12.0618 35.2129 11.5979 35.2116 11.4927C35.2071 11.17 34.6489 11.0073 34.3893 10.9471C34.1176 10.8842 33.883 10.8611 33.7028 10.8744C33.4652 10.8921 33.2981 11.1049 33.2981 11.2637V11.6295C32.9753 11.1223 32.4562 10.7693 32.1109 10.667C31.1806 10.3908 30.2153 10.6396 29.4777 11.6601C28.9967 12.3255 28.6074 13.0632 28.4069 14.6962C28.349 15.1682 28.3235 15.6101 28.3268 16.0231C28.135 17.1961 27.2878 18.5481 26.5949 18.5481C26.1894 18.5481 25.8032 17.7616 25.8032 16.0853C25.8032 13.8525 25.9414 10.6735 25.9648 10.3671C25.9648 10.3671 26.8403 10.3522 27.0098 10.3503C27.4466 10.3455 27.8421 10.3558 28.4238 10.326C28.7155 10.3112 28.9966 9.26411 28.6955 9.13452C28.559 9.07587 27.5945 9.02448 27.2121 9.01637C26.8906 9.00908 25.9955 8.94284 25.9955 8.94284C25.9955 8.94284 26.0758 6.83274 26.0945 6.60984C26.1103 6.42405 25.87 6.3284 25.7321 6.27036C25.397 6.1286 25.0971 6.06073 24.7416 5.98745C24.2506 5.88614 24.0278 5.98524 23.9843 6.39971C23.9187 7.02873 23.8848 8.87116 23.8848 8.87116C23.5244 8.87116 22.2934 8.80071 21.9329 8.80071C21.598 8.80071 21.2365 10.2411 21.6996 10.2588C22.2323 10.2794 23.1607 10.2973 23.7762 10.3158C23.7762 10.3158 23.7488 13.5473 23.7488 14.5449C23.7488 14.651 23.7497 14.7532 23.7499 14.8524C23.4112 16.618 22.2181 17.5717 22.2181 17.5717C22.4743 16.4037 21.9509 15.5265 21.0081 14.784C20.6607 14.5104 19.975 13.9924 19.2078 13.4248C19.2078 13.4248 19.6522 12.9869 20.0462 12.1058C20.3255 11.4817 20.3375 10.7675 19.6522 10.61C18.5198 10.3496 17.5861 11.1812 17.3076 12.069C17.0918 12.7568 17.2069 13.2672 17.6296 13.7974C17.6605 13.8361 17.6939 13.8757 17.7285 13.9155C17.4729 14.4082 17.1217 15.0715 16.8243 15.5859C15.9988 17.0141 15.3752 18.1438 14.9039 18.1438C14.5272 18.1438 14.5322 16.9969 14.5322 15.9231C14.5322 14.9973 14.6006 13.6055 14.6552 12.1646C14.6733 11.688 14.435 11.4165 14.0355 11.1706C13.7928 11.0212 13.2748 10.7275 12.9748 10.7275C12.5258 10.7275 11.2302 10.7886 10.0061 14.3295C9.85187 14.7758 9.54881 15.589 9.54881 15.589L9.57489 11.3309C9.57489 11.2311 9.52172 11.1346 9.39998 11.0686C9.1937 10.9566 8.64276 10.7275 8.15288 10.7275C7.91947 10.7275 7.80299 10.8361 7.80299 11.0525L7.76026 17.7142C7.76026 18.2204 7.77346 18.8109 7.8235 19.0692C7.87336 19.3277 7.95414 19.5381 8.05418 19.6633C8.15408 19.7882 8.26963 19.8835 8.46016 19.9228C8.63748 19.9593 9.60846 20.084 9.65893 19.7129C9.7194 19.2682 9.72171 18.7872 10.2316 16.9934C11.0253 14.2005 12.0602 12.8378 12.5468 12.3539C12.6318 12.2693 12.7289 12.2643 12.7243 12.4027C12.7035 13.015 12.6305 14.545 12.5813 15.8449C12.4495 19.3234 13.0823 19.9682 13.9866 19.9682C14.6785 19.9682 15.6537 19.2807 16.6992 17.5406C17.351 16.4562 17.9838 15.3929 18.4385 14.6265C18.7553 14.9199 19.1109 15.2355 19.4662 15.5728C20.292 16.3565 20.5631 17.1012 20.3832 17.8077C20.2456 18.3478 19.7275 18.9043 18.8053 18.3634C18.5366 18.2055 18.4219 18.0836 18.1516 17.9057C18.0064 17.8101 17.7847 17.7815 17.6518 17.8816C17.3066 18.142 17.1091 18.4731 16.9964 18.883C16.8867 19.2818 17.2862 19.4927 17.7003 19.6771C18.0568 19.8359 18.8232 19.9797 19.3119 19.9961C21.2162 20.0598 22.7416 19.0766 23.8036 16.5406C23.9937 18.7308 24.8027 19.9701 26.2083 19.9701C27.148 19.9701 28.0902 18.7555 28.5022 17.5605C28.6205 18.0476 28.7955 18.4712 29.0216 18.8294C30.1047 20.5454 32.2058 20.1761 33.2613 18.7189C33.5876 18.2686 33.6372 18.1068 33.6372 18.1068C33.7912 19.4828 34.8992 19.9635 35.5336 19.9635C36.2442 19.9635 36.9778 19.6276 37.492 18.47C37.5523 18.5956 37.618 18.7156 37.6899 18.8293C38.7729 20.5454 40.8741 20.176 41.9295 18.7188C41.9793 18.6505 42.0224 18.5885 42.0602 18.5328L42.0911 19.4366C42.0911 19.4366 41.4891 19.9889 41.1195 20.3278C39.4928 21.8202 38.2559 22.9524 38.1649 24.2709C38.0481 25.9522 39.4117 26.577 40.4432 26.6589C41.5387 26.7458 42.4768 26.1407 43.0535 25.2938C43.5607 24.5483 43.8926 22.9439 43.8683 21.3593C43.8586 20.7248 43.8426 19.918 43.83 19.0531C44.4018 18.3892 45.0459 17.55 45.639 16.5678C46.2854 15.4973 46.9781 14.0598 47.3328 12.9411C47.3328 12.9411 47.9347 12.9463 48.577 12.9042C48.7824 12.8908 48.8414 12.9327 48.8034 13.0833C48.7576 13.2653 47.992 16.2184 48.6907 18.1856C49.169 19.5323 50.2471 19.9656 50.8864 19.9656C51.6346 19.9656 52.3505 19.4005 52.7341 18.5613C52.7803 18.6549 52.8286 18.7454 52.8814 18.829C53.9645 20.545 56.0582 20.1734 57.121 18.7185C57.3609 18.3902 57.497 18.1064 57.497 18.1064C57.7251 19.5304 58.8325 19.9703 59.4668 19.9703C60.1275 19.9703 60.7546 19.6995 61.2634 18.4957C61.2846 19.0257 61.3181 19.4591 61.3709 19.5957C61.4031 19.6793 61.5909 19.7842 61.7275 19.8349C62.3319 20.059 62.9484 19.953 63.1765 19.9069C63.3345 19.8749 63.4577 19.7482 63.4745 19.4209C63.5188 18.5615 63.4916 17.1175 63.7521 16.0444C64.1895 14.2434 64.5974 13.5448 64.791 13.1989C64.8993 13.0051 65.0215 12.9732 65.0259 13.1783C65.035 13.5932 65.0557 14.8118 65.2251 16.449C65.3495 17.6531 65.5158 18.3648 65.6435 18.5901C66.008 19.2342 66.4583 19.2647 66.8249 19.2647C67.0582 19.2647 67.5459 19.2003 67.5023 18.7904C67.481 18.5906 67.5183 17.3558 67.9495 15.5815C68.231 14.4228 68.7004 13.3758 68.8698 12.9931C68.9322 12.8519 68.9612 12.9632 68.9602 12.9849C68.9246 13.7828 68.8445 16.3929 69.1696 17.8203C69.6103 19.7541 70.885 19.9705 71.3293 19.9705C72.2776 19.9705 73.0532 19.2491 73.3145 17.351C73.3774 16.8942 73.2842 16.5415 73.005 16.5415" fill="#262626"/>
</g>
<defs>
<clipPath id="clip0_672_23062">
<rect width="73.1292" height="28.0816" fill="white" transform="translate(0.285645)"/>
</clipPath>
</defs>
</svg>
