<svg width="86" height="29" viewBox="0 0 86 29" fill="none" xmlns="http://www.w3.org/2000/svg">
<g clip-path="url(#clip0_672_23061)">
<path d="M6.71052 7.45331C10.2026 7.45331 13.0469 10.2976 13.0469 13.8178C13.0469 17.338 10.2026 20.1824 6.71052 20.1824C3.21847 20.1824 0.374146 17.3662 0.374146 13.8178C0.374146 10.2695 3.21847 7.45331 6.71052 7.45331ZM56.3876 7.3125V18.4645C56.3876 19.3094 56.7256 19.5347 57.3733 19.7036L57.4015 19.8444H53.8249V18.4645C53.4025 19.4783 52.5295 20.0979 51.403 20.0979C49.488 20.0979 48.2208 18.3519 48.2208 15.761C48.2208 14.2966 48.6432 13.0575 49.4317 12.1281C50.1921 11.227 51.2341 10.7482 52.3887 10.7482C52.9519 10.7482 53.4307 10.8609 53.8249 11.1143V9.59359C53.8249 9.25565 53.7405 9.03036 53.5715 8.86139C53.3462 8.66426 52.9801 8.57977 52.4169 8.6361H52.3887V8.49529L56.3876 7.3125ZM69.9616 10.7764V18.4645C69.9616 19.3094 70.2995 19.5347 70.9472 19.7036V19.8444H67.3707V18.4363C66.9483 19.4502 66.0189 20.0979 64.977 20.0979C63.7378 20.0979 62.9493 19.5347 62.6395 18.4363L62.5832 18.1547C62.5269 17.8731 62.4987 17.5915 62.4987 17.3099V13.1983C62.4987 12.2971 62.3016 12.0155 61.5131 11.9592H61.4849V11.8184L65.0614 10.7764V17.2536C65.0614 18.2111 65.4839 18.7461 66.2724 18.7461C66.7511 18.7461 67.1454 18.4927 67.3707 18.0702V13.1983C67.3707 12.2689 67.2017 11.9873 66.554 11.931H66.5258V11.7902L69.9616 10.7764ZM44.1373 10.7482C45.0948 10.7482 46.0242 11.0862 46.6437 11.6776C47.3478 12.3534 47.7139 13.3391 47.742 14.6345V14.6627H42.3632C42.2505 16.5214 43.4051 18.0421 44.9259 18.0984C46.0242 18.1829 46.9817 17.507 47.5167 16.4087L47.6575 16.465C47.3478 18.5208 46.1368 20.0697 44.0247 20.0697C41.631 20.0697 40.2792 18.0702 40.2229 15.5639V14.9161C40.3355 13.8178 40.6735 12.8322 41.2649 12.1C41.631 11.6494 42.0534 11.3115 42.5603 11.0862C42.9827 10.8609 43.6023 10.7482 44.1092 10.7482H44.1373ZM81.3952 10.7764C82.9159 10.7764 83.8453 11.7339 83.8453 13.3673V18.6053C83.8453 19.2249 84.1269 19.5347 84.8309 19.7036H84.8591V19.8444H81.2544V13.4517C81.2544 12.4379 80.8883 11.931 80.1279 11.931C79.5084 11.931 79.1986 12.3816 79.0296 12.7759C79.0578 12.973 79.0859 13.1701 79.0859 13.3673V18.6898C79.0859 19.3375 79.2831 19.5628 79.8463 19.7036H79.8745V19.8444H76.5232V13.4517C76.5232 12.4379 76.129 11.931 75.3968 11.931C74.8054 11.931 74.4956 12.3534 74.3548 12.6914V18.718C74.3548 19.3657 74.5519 19.591 75.1151 19.7318H75.1433V19.8726H71.7921V13.1701C71.7921 12.2689 71.5668 11.9873 70.8064 11.931H70.7783V11.7902L74.3548 10.8045V12.2971C74.7209 11.3396 75.5657 10.7764 76.6359 10.7764C77.8468 10.7764 78.6917 11.3678 78.9733 12.4379C79.3394 11.4241 80.2687 10.7764 81.3952 10.7764ZM30.0284 7.87573L33.3796 15.7328L36.7308 7.87573H40.3355L40.3074 8.01654L40.2664 8.02565C39.6454 8.16719 39.3217 8.39942 39.3217 9.17117V18.7461C39.378 19.3657 39.716 19.5628 40.3074 19.7036H40.3355V19.8444H35.7452V19.7036H35.7733C36.3647 19.5628 36.7027 19.3657 36.759 18.7461V9.42462L32.3376 19.8163H32.0842L27.7754 9.70624V18.5208C27.7754 19.3094 28.1134 19.5347 28.7611 19.6755H28.7892V19.8163H26.142V19.6755H26.1702C26.8179 19.5347 27.1559 19.3094 27.1559 18.5208V9.17117C27.1559 8.38264 26.8179 8.15735 26.1702 8.01654H26.142V7.87573H30.0284ZM60.7527 10.7764V18.4645L60.7531 18.5165C60.7669 19.3187 61.1041 19.5382 61.7384 19.7036L61.7665 19.8444H58.19V13.1983C58.19 12.2971 57.9929 12.0155 57.2043 11.9592H57.1762V11.8184L60.7527 10.7764ZM16.8487 7.81941C18.5666 7.81941 20.0028 10.5229 20.0028 13.8178C20.0028 17.1409 18.5947 19.8163 16.8487 19.8163C15.1027 19.8163 13.6946 17.1409 13.6946 13.8178C13.6946 10.4948 15.1027 7.81941 16.8487 7.81941ZM21.6925 8.43897C22.3402 8.43897 22.819 10.8609 22.819 13.8178C22.819 16.7748 22.3121 19.1967 21.6925 19.1967C21.0791 19.1967 20.5762 16.823 20.5662 13.9064L20.566 13.8178C20.566 10.8609 21.073 8.43897 21.6925 8.43897ZM52.8111 11.2551C51.6847 11.2551 50.9806 12.7477 50.9806 15.057C50.9806 16.1553 51.1777 17.1128 51.5157 17.7605C51.8255 18.38 52.276 18.718 52.783 18.718C53.2899 18.718 53.656 18.4927 53.8249 18.0702V11.8747C53.6278 11.4804 53.2617 11.2551 52.8111 11.2551ZM44.1092 11.2833C43.0954 11.2833 42.504 12.4942 42.4195 14.1839V14.2121H45.4891C45.5454 12.8885 45.3201 12.0155 44.8977 11.5931C44.6724 11.3959 44.419 11.2833 44.1092 11.2833ZM59.3728 7.39698C60.1895 7.39698 60.809 8.01654 60.809 8.83323C60.809 9.64992 60.1895 10.2695 59.3728 10.2695C58.5561 10.2695 57.9365 9.64992 57.9365 8.83323C57.9365 8.01654 58.5561 7.39698 59.3728 7.39698Z" fill="black"/>
</g>
<defs>
<clipPath id="clip0_672_23061">
<rect width="84.8299" height="28.0816" fill="white" transform="translate(0.374146)"/>
</clipPath>
</defs>
</svg>
