<svg width="101" height="29" viewBox="0 0 101 29" fill="none" xmlns="http://www.w3.org/2000/svg">
<g clip-path="url(#clip0_672_23060)">
<path d="M2.31756 20.4764C1.95045 20.4772 1.5897 20.3805 1.27218 20.1963C0.954652 20.012 0.691728 19.7468 0.510266 19.4276C0.331581 19.1108 0.242466 18.7512 0.252467 18.3876C0.262468 18.0239 0.371208 17.6699 0.567039 17.3633L4.28887 11.5188C4.47936 11.2046 4.74981 10.9467 5.0726 10.7713C5.39539 10.5959 5.75894 10.5094 6.12613 10.5205C6.49304 10.5293 6.85103 10.6354 7.16346 10.828C7.47589 11.0206 7.73154 11.2927 7.90426 11.6165C8.25121 12.2726 8.20784 13.0619 7.79229 13.6777L4.07282 19.5223C3.8842 19.8162 3.62444 20.0577 3.3176 20.2245C3.01077 20.3913 2.66679 20.4779 2.31756 20.4764Z" fill="black"/>
<path d="M8.70113 20.4781C7.95046 20.4781 7.25971 20.0767 6.89699 19.4317C6.7187 19.1157 6.6298 18.7571 6.6398 18.3944C6.6498 18.0317 6.75833 17.6786 6.95376 17.3729L10.6685 11.5417C10.8562 11.2232 11.1257 10.9607 11.449 10.7814C11.7723 10.6021 12.1378 10.5126 12.5073 10.5222C13.2643 10.5387 13.9503 10.9622 14.2973 11.6245C14.6419 12.2869 14.5914 13.0809 14.1632 13.6952L10.4493 19.5263C10.2613 19.819 10.0025 20.0596 9.69702 20.2259C9.39149 20.3923 9.049 20.479 8.70113 20.4781Z" fill="black"/>
<path d="M14.9426 20.5252C16.0008 20.5252 16.8587 19.6854 16.8587 18.6493C16.8587 17.6133 16.0008 16.7734 14.9426 16.7734C13.8844 16.7734 13.0265 17.6133 13.0265 18.6493C13.0265 19.6854 13.8844 20.5252 14.9426 20.5252Z" fill="black"/>
<path d="M98.1841 16.883C98.7629 16.883 99.1091 17.2946 99.1091 17.9688V20.2792H99.8952V17.916C99.8952 16.7695 99.3551 16.1047 98.3395 16.1047C97.9421 16.1047 97.3113 16.2135 96.9351 16.9445C96.8477 16.7289 96.7036 16.541 96.5179 16.4008C96.3323 16.2605 96.1122 16.1732 95.8809 16.1481C95.7353 16.1214 95.587 16.1127 95.4393 16.1221C95.116 16.1481 94.5404 16.3492 94.3251 16.8049V16.1923H93.5382V20.2792H94.3251V18.0737C94.3251 17.2158 94.8865 16.883 95.4488 16.883C95.9755 16.883 96.3217 17.2859 96.3217 17.9601V20.2792H97.1039V18.0737C97.1039 17.3908 97.5139 16.8751 98.1841 16.883ZM90.6498 19.5963C91.0094 19.6042 91.3563 19.4607 91.6079 19.2005C91.8602 18.9403 91.9942 18.5862 91.9808 18.2227C91.9808 17.3995 91.3752 16.883 90.6498 16.883C89.9236 16.883 89.3188 17.3995 89.3188 18.2227C89.3046 18.5854 89.4386 18.9387 89.6894 19.1981C89.9401 19.4583 90.2855 19.6026 90.6435 19.5963H90.6498ZM90.6498 20.3628C89.5001 20.3628 88.5405 19.5135 88.5405 18.218C88.5405 16.9224 89.5001 16.1 90.6498 16.1C91.7995 16.1 92.767 16.9224 92.767 18.218C92.767 19.5135 91.794 20.3667 90.6443 20.3667L90.6498 20.3628ZM84.4914 18.218L84.4835 18.2227C84.4835 16.9272 85.4684 16.1047 86.626 16.1C86.9168 16.0944 87.2055 16.1499 87.4735 16.2629C87.7415 16.3759 87.9828 16.5439 88.1817 16.7561L87.5856 17.2639C87.459 17.1395 87.309 17.0415 87.1443 16.9755C86.9796 16.9094 86.8034 16.8767 86.626 16.8791C85.9005 16.8791 85.2697 17.3955 85.2697 18.218C85.2697 18.7739 85.6001 19.2746 86.1071 19.4875C86.6141 19.7004 87.1976 19.5821 87.5856 19.1894L88.1904 19.6972C87.9908 19.9116 87.7484 20.0816 87.4789 20.1962C87.2094 20.3109 86.9188 20.3676 86.626 20.3628C85.4771 20.3628 84.4914 19.5135 84.4914 18.218ZM81.9737 19.4946C81.9728 19.4231 81.9861 19.3522 82.0127 19.2859C82.0392 19.2196 82.0786 19.1591 82.1286 19.108C82.1785 19.0569 82.238 19.0161 82.3037 18.988C82.3694 18.9599 82.44 18.945 82.5114 18.9442C82.5829 18.945 82.6535 18.9599 82.7192 18.988C82.7849 19.0161 82.8444 19.0569 82.8943 19.108C82.9443 19.1591 82.9837 19.2196 83.0102 19.2859C83.0368 19.3522 83.05 19.4231 83.0492 19.4946C83.0422 19.633 82.9826 19.7635 82.8827 19.8594C82.7828 19.9554 82.65 20.0096 82.5114 20.0111C82.3729 20.0096 82.2401 19.9554 82.1402 19.8594C82.0402 19.7635 81.9807 19.633 81.9737 19.4946Z" fill="black"/>
<path fill-rule="evenodd" clip-rule="evenodd" d="M84.1245 10.9967H81.3245L79.3619 16.0567L77.4095 10.9967H74.6094L78.0135 18.9924L75.8963 24.2786H78.6758L84.1245 10.9967ZM67.0956 15.444C67.0956 16.7214 68.2121 17.562 69.309 17.562C70.3869 17.562 71.4459 16.7798 71.4459 15.4432C71.4459 14.1067 70.3869 13.3237 69.309 13.3237C68.2121 13.3237 67.0956 14.165 67.0956 15.4432V15.444ZM71.4459 19.9086V18.897C70.8781 19.7564 69.5534 20.0813 68.8737 20.0813C66.6232 20.0813 64.372 18.3071 64.372 15.4432C64.372 12.5801 66.6225 10.8059 68.8737 10.8059C69.4406 10.8059 70.7654 10.9952 71.4459 11.9887V10.9999H74.0559V19.9102L71.4459 19.9094V19.9086ZM63.6292 19.9086H61.0192V18.8015C60.5832 19.6216 59.5257 20.0995 58.4281 20.0995C56.158 20.0995 54.1527 18.2866 54.1527 15.4795C54.1527 12.6195 56.158 10.8043 58.4281 10.8043C59.5242 10.8043 60.5847 11.2617 61.0192 12.0825V6.14258H63.6292V19.9086ZM60.9624 15.4235C60.9624 14.0877 59.9981 13.3047 58.9202 13.3047C57.8036 13.3047 56.8763 14.1445 56.8763 15.4235C56.8763 16.7435 57.8036 17.5793 58.9194 17.5793C60.0178 17.5809 60.9624 16.7025 60.9624 15.4235ZM47.6995 15.1933C47.6995 13.8386 48.3997 13.3804 49.3262 13.3804C50.2148 13.3804 50.8583 13.9718 50.8583 15.1546V19.9071H53.4872V14.5829C53.4872 12.0455 52.2382 10.8043 50.2519 10.8043C49.2118 10.8043 48.1718 11.3957 47.6987 12.2931V10.9967H45.0713V19.9071H47.6995V15.1933ZM39.733 20.06C37.2365 20.06 35.154 18.2283 35.154 15.4227C35.154 12.6156 37.2342 10.802 39.733 10.802C42.2318 10.802 44.3301 12.6156 44.3301 15.4227C44.3301 18.2299 42.2295 20.0608 39.733 20.0608V20.06ZM39.733 17.4658C40.829 17.4658 41.7382 16.6631 41.7382 15.4235C41.7382 14.221 40.8298 13.4002 39.733 13.4002C39.4689 13.396 39.2067 13.4457 38.9624 13.5461C38.7181 13.6466 38.4969 13.7957 38.3121 13.9845C38.1262 14.1742 37.9804 14.3993 37.8832 14.6466C37.7861 14.8938 37.7397 15.158 37.7467 15.4235C37.7475 16.6646 38.6551 17.4658 39.733 17.4658ZM30.441 13.3812C31.2161 13.3812 31.8974 13.9923 31.8974 15.1554V19.9086H34.5074V14.8479C34.5074 12.1574 33.1993 10.8028 31.1026 10.8028C30.4797 10.8028 29.3063 10.992 28.4547 12.3861C27.9627 11.3555 27.0173 10.8209 25.62 10.8209C25.1349 10.8184 24.6593 10.9557 24.2502 11.2164C23.841 11.477 23.5156 11.85 23.3128 12.2907V10.9975H20.6823V19.9078H23.3104V15.1933C23.3104 13.8386 24.0485 13.3804 24.8425 13.3804C25.5995 13.3804 26.2792 13.9718 26.2989 15.0978V19.9078H28.9278V15.1933C28.9278 13.8977 29.6091 13.382 30.441 13.382V13.3812Z" fill="black"/>
</g>
<defs>
<clipPath id="clip0_672_23060">
<rect width="100.041" height="28.0816" fill="white" transform="translate(0.251709)"/>
</clipPath>
</defs>
</svg>
