<svg width="17" height="29" viewBox="0 0 17 29" fill="none" xmlns="http://www.w3.org/2000/svg">
<g clip-path="url(#clip0_672_23059)">
<path d="M-53.1363 16.9802C-52.5208 16.5175 -52.4389 16.776 -51.9195 17.2931C-51.6597 17.5516 -50.9493 18.0013 -51.4142 18.3814C-52.3844 19.17 -53.2597 19.5241 -54.4979 19.5241C-57.3004 19.5111 -59.2822 17.4288 -59.1233 14.6666C-59.0557 13.4295 -58.5635 12.2585 -57.5921 11.4558C-56.7038 10.7074 -55.5973 10.3816 -54.435 10.4087C-53.8653 10.407 -53.301 10.5178 -52.7746 10.7345C-52.418 10.8626 -52.0821 11.0416 -51.7771 11.2657C-51.1616 11.7379 -51.4486 12.0141 -51.9278 12.4898C-52.0369 12.5984 -52.146 12.7082 -52.2421 12.8168C-52.4876 13.0612 -52.6524 13.2382 -52.9798 13.0069C-53.6083 12.5713 -54.403 12.3399 -55.1537 12.5347C-57.5732 13.1462 -57.4641 17.4324 -54.4967 17.4465C-54.0048 17.4401 -53.5279 17.2766 -53.1363 16.9802ZM14.1187 19.5772C14.0216 19.5777 13.9254 19.559 13.8356 19.5223C13.7458 19.4856 13.6643 19.4315 13.5956 19.3633C13.5269 19.295 13.4724 19.2139 13.4354 19.1246C13.3984 19.0353 13.3795 18.9396 13.3798 18.843L13.4213 9.34631C13.4208 9.2497 13.4396 9.15395 13.4765 9.06459C13.5134 8.97524 13.5677 8.89403 13.6362 8.82566C13.7048 8.7573 13.7863 8.70312 13.876 8.66626C13.9658 8.62939 14.0619 8.61058 14.159 8.61089H14.9524C15.0496 8.61058 15.1459 8.62943 15.2357 8.66637C15.3255 8.7033 15.407 8.75759 15.4756 8.82608C15.5442 8.89457 15.5985 8.97592 15.6353 9.06541C15.6721 9.15491 15.6908 9.25078 15.6901 9.34749L15.6486 18.8442C15.6491 18.9407 15.6303 19.0364 15.5934 19.1257C15.5565 19.215 15.5022 19.2961 15.4336 19.3644C15.365 19.4327 15.2835 19.4867 15.1938 19.5235C15.1041 19.5602 15.0079 19.5789 14.9109 19.5784L14.1187 19.5772ZM9.96764 18.4759C9.10659 19.2786 8.28587 19.7 7.06903 19.7C4.60925 19.6858 3.43273 17.659 3.43273 15.3866L3.44696 11.523C3.44664 11.4265 3.46556 11.3308 3.50261 11.2416C3.53966 11.1524 3.59411 11.0713 3.66282 11.0032C3.73152 10.935 3.81312 10.8811 3.90289 10.8445C3.99266 10.8079 4.08884 10.7894 4.18584 10.79H4.97928C5.07629 10.7895 5.17243 10.8082 5.26215 10.8449C5.35186 10.8817 5.43336 10.9357 5.50196 11.004C5.57056 11.0723 5.62488 11.1534 5.66179 11.2427C5.69869 11.332 5.71745 11.4277 5.71697 11.5242L5.70393 15.3878C5.70393 16.6533 6.38707 17.646 7.72726 17.646C9.06745 17.646 9.88699 16.5305 9.90003 15.2851V13.9052C9.88922 13.8516 9.88484 13.7969 9.88699 13.7423L9.90003 11.5514C9.89956 11.4548 9.91832 11.3591 9.95522 11.2698C9.99213 11.1806 10.0464 11.0994 10.115 11.0311C10.1836 10.9629 10.2652 10.9088 10.3549 10.8721C10.4446 10.8353 10.5407 10.8167 10.6377 10.8171H11.4205C11.5175 10.8167 11.6136 10.8353 11.7034 10.8721C11.7931 10.9088 11.8746 10.9629 11.9432 11.0311C12.0118 11.0994 12.0661 11.1806 12.103 11.2698C12.1399 11.3591 12.1587 11.4548 12.1582 11.5514L12.1321 18.8442C12.1302 19.0371 12.0515 19.2215 11.9132 19.3567C11.7749 19.4919 11.5883 19.567 11.3944 19.5654H10.7243C10.534 19.5595 10.3531 19.4816 10.2185 19.3476C10.0839 19.2136 10.0056 19.0336 9.99966 18.8442L9.96764 18.4759ZM0.530563 10.8171H2.0617C2.15878 10.8185 2.25462 10.839 2.34369 10.8775C2.43277 10.9159 2.51331 10.9715 2.58068 11.0411C2.64806 11.1107 2.70092 11.1928 2.73622 11.2828C2.77152 11.3729 2.78856 11.4689 2.78635 11.5655V12.0684C2.78481 12.2623 2.70692 12.4478 2.56942 12.5851C2.43192 12.7224 2.24578 12.8005 2.05103 12.8026H0.516331L0.489056 18.8029C0.489525 18.8995 0.470772 18.9952 0.43388 19.0846C0.396992 19.1739 0.342686 19.2551 0.274105 19.3235C0.205528 19.3919 0.124027 19.446 0.0343056 19.4829C-0.0554161 19.5198 -0.151581 19.5386 -0.248646 19.5383H-1.0409C-1.13802 19.5386 -1.23424 19.5198 -1.32402 19.4829C-1.41381 19.4461 -1.49539 19.3919 -1.56406 19.3236C-1.63274 19.2552 -1.68716 19.174 -1.72418 19.0847C-1.7612 18.9953 -1.78009 18.8995 -1.77978 18.8029L-1.7525 10.5043C-1.7525 8.6947 -0.713558 7.26518 1.1461 7.10228C1.20066 7.10228 1.24098 7.0893 1.29554 7.0893C1.40493 7.08221 1.51468 7.08221 1.62407 7.0893H2.33567C2.43264 7.09068 2.52838 7.11113 2.61738 7.1495C2.70638 7.18786 2.78687 7.24336 2.85423 7.31281C2.92158 7.38227 2.97447 7.46429 3.00984 7.55417C3.04521 7.64405 3.06236 7.74001 3.06032 7.83652V8.29925C3.05908 8.49371 2.981 8.67987 2.84295 8.81749C2.70491 8.95511 2.51799 9.03312 2.32262 9.03467H1.7486C0.873322 9.03467 0.504475 9.70044 0.490242 10.5173L0.530563 10.8171ZM-4.96421 10.79H-3.28601C-3.09214 10.7919 -2.90694 10.8702 -2.77107 11.0079C-2.6352 11.1456 -2.55978 11.3313 -2.56136 11.5242V12.0271C-2.56324 12.2201 -2.64198 12.4044 -2.78029 12.5396C-2.91861 12.6749 -3.10518 12.7499 -3.29906 12.7483H-4.97845L-4.99149 16.4195C-4.99149 17.1278 -4.64992 17.5351 -3.9395 17.5351H-3.59793C-3.40395 17.5372 -3.21875 17.6159 -3.08292 17.7537C-2.94709 17.8916 -2.8717 18.0774 -2.87328 18.2705V18.7804C-2.87547 18.9733 -2.95431 19.1574 -3.09255 19.2926C-3.2308 19.4278 -3.41719 19.5029 -3.61098 19.5017H-4.25379C-4.37257 19.504 -4.49138 19.4993 -4.60959 19.4875C-6.42774 19.3695 -7.23423 18.1961 -7.23423 16.4266C-7.22 14.0457 -7.22 11.6789 -7.20695 9.29791C-7.20602 9.20226 -7.18617 9.10773 -7.14854 9.01972C-7.1109 8.93171 -7.05622 8.85194 -6.9876 8.78496C-6.91899 8.71799 -6.83779 8.66512 -6.74865 8.62938C-6.65951 8.59364 -6.56417 8.57572 -6.46807 8.57666H-5.68887C-5.49499 8.57853 -5.30979 8.6569 -5.17392 8.79456C-5.03806 8.93223 -4.96264 9.11793 -4.96421 9.31089V10.79ZM-29.2774 10.6944H-27.5992C-27.4053 10.6962 -27.2201 10.7746 -27.0842 10.9123C-26.9484 11.0499 -26.873 11.2356 -26.8745 11.4286V11.9338C-26.8767 12.1267 -26.9556 12.3109 -27.0938 12.446C-27.232 12.5812 -27.4184 12.6564 -27.6122 12.6551H-29.2964V16.3275C-29.2964 17.0357 -28.9548 17.443 -28.2444 17.443H-27.9016C-27.8057 17.4439 -27.7109 17.4636 -27.6226 17.501C-27.5343 17.5384 -27.4543 17.5928 -27.3871 17.661C-27.3199 17.7291 -27.2669 17.8098 -27.231 17.8984C-27.1952 17.987 -27.1772 18.0817 -27.1782 18.1772V18.6801C-27.18 18.873 -27.2588 19.0574 -27.3971 19.1926C-27.5354 19.3278 -27.722 19.4029 -27.9158 19.4013H-28.4211C-30.4041 19.3884 -31.5521 18.5443 -31.5521 16.3322C-31.5379 13.9512 -31.5379 11.5833 -31.5249 9.20229C-31.5227 9.00922 -31.4437 8.82489 -31.3052 8.68969C-31.1667 8.5545 -30.98 8.47947 -30.786 8.48104H-30.0068C-29.8129 8.48322 -29.6278 8.56189 -29.4922 8.69978C-29.3565 8.83766 -29.2814 9.02349 -29.2833 9.21646L-29.2774 10.6944ZM-39.1462 11.7284C-38.3397 10.98 -37.4644 10.5043 -36.3306 10.5043C-33.8696 10.5173 -32.5982 12.5111 -32.6124 14.8165L-32.6255 18.6801C-32.6252 18.7768 -32.6441 18.8725 -32.6811 18.9619C-32.7181 19.0513 -32.7725 19.1324 -32.8412 19.2008C-32.9099 19.2692 -32.9915 19.3233 -33.0812 19.3602C-33.171 19.397 -33.2672 19.4158 -33.3644 19.4155H-34.1566C-34.2537 19.4158 -34.35 19.397 -34.4398 19.3602C-34.5295 19.3233 -34.6111 19.2692 -34.6798 19.2008C-34.7485 19.1324 -34.8029 19.0513 -34.8399 18.9619C-34.8769 18.8725 -34.8958 18.7768 -34.8955 18.6801L-34.8813 14.8436C-34.8813 13.5782 -35.5644 12.5854 -36.9046 12.5854C-38.2448 12.5854 -39.0643 13.688 -39.0774 14.9393L-39.0916 18.6801C-39.0935 18.873 -39.1722 19.0574 -39.3105 19.1926C-39.4488 19.3278 -39.6354 19.4029 -39.8293 19.4013H-40.6085C-40.8024 19.3995 -40.9876 19.3211 -41.1234 19.1834C-41.2593 19.0458 -41.3347 18.8601 -41.3332 18.6671C-41.3201 16.3404 -41.3201 14.0008 -41.3059 11.6741V11.3613C-41.3053 11.1686 -41.2279 10.9839 -41.0907 10.8478C-40.9535 10.7118 -40.7678 10.6354 -40.5741 10.6354H-39.904C-39.7136 10.641 -39.5326 10.7188 -39.3979 10.8528C-39.2632 10.9869 -39.185 11.1671 -39.1794 11.3566L-39.1462 11.7284ZM-14.7867 11.8229C-13.9802 11.0757 -13.1062 10.5988 -11.9711 10.5988C-9.51018 10.6129 -8.23997 12.6126 -8.25301 14.9121L-8.26725 18.7804C-8.26678 18.877 -8.28553 18.9728 -8.32242 19.0621C-8.35931 19.1515 -8.41361 19.2327 -8.48219 19.3011C-8.55077 19.3694 -8.63227 19.4236 -8.722 19.4605C-8.81172 19.4973 -8.90788 19.5162 -9.00494 19.5158H-9.7972C-9.89432 19.5162 -9.99054 19.4973 -10.0803 19.4605C-10.1701 19.4236 -10.2517 19.3695 -10.3204 19.3011C-10.389 19.2328 -10.4435 19.1516 -10.4805 19.0622C-10.5175 18.9729 -10.5364 18.8771 -10.5361 18.7804L-10.5219 14.944C-10.5219 13.6785 -11.2062 12.6858 -12.5452 12.6858C-13.8842 12.6858 -14.7049 13.7871 -14.7191 15.0396L-14.7381 18.7804C-14.7403 18.9735 -14.8193 19.1578 -14.9578 19.293C-15.0963 19.4282 -15.283 19.5033 -15.477 19.5017H-16.2562C-16.4499 19.4995 -16.6348 19.421 -16.7704 19.2834C-16.906 19.1457 -16.9812 18.9602 -16.9797 18.7674L-16.9524 11.4605C-16.9521 11.3644 -16.9327 11.2694 -16.8953 11.1808C-16.858 11.0923 -16.8034 11.012 -16.7347 10.9445C-16.666 10.877 -16.5846 10.8237 -16.4952 10.7877C-16.4057 10.7516 -16.31 10.7336 -16.2135 10.7345H-15.5434C-15.3523 10.7408 -15.1709 10.8196 -15.0363 10.9549C-14.9018 11.0901 -14.8244 11.2714 -14.8199 11.4617L-14.7867 11.8229ZM-46.5884 10.4359C-49.2545 10.4217 -51.1403 12.3399 -51.1545 14.9794C-51.1675 17.646 -49.3091 19.5383 -46.6156 19.5513C-43.9222 19.5642 -42.0365 17.6873 -42.0234 15.003C-42.0092 12.3812 -43.9364 10.4488 -46.5884 10.4359ZM-24.4574 15.8919C-24.2665 17.116 -23.09 17.6189 -21.9419 17.633C-21.3664 17.628 -20.7983 17.503 -20.2744 17.2659C-20.1901 17.2318 -20.1081 17.1923 -20.0289 17.1479C-19.7549 16.998 -19.5094 16.9035 -19.2627 17.1479C-19.1263 17.2836 -19.003 17.4206 -18.8666 17.5421C-18.7378 17.6645 -18.6188 17.7967 -18.5108 17.9376C-18.142 18.3991 -18.4017 18.5089 -18.8251 18.7946C-19.7276 19.3931 -20.903 19.6917 -21.9834 19.6917C-24.8809 19.6787 -26.7951 17.9211 -26.7951 15.0124C-26.7808 12.2632 -24.8678 10.4406 -22.1068 10.4536C-19.29 10.4677 -17.6913 12.1144 -17.6498 14.9168C-17.6367 15.6782 -17.6094 15.9237 -18.4017 15.9237L-24.4574 15.8919ZM-46.5884 12.4898C-45.2078 12.4898 -44.2922 13.688 -44.2922 15.0077C-44.2922 16.3818 -45.1533 17.4867 -46.6026 17.4867C-48.0519 17.4867 -48.8987 16.3711 -48.8987 14.9971C-48.8987 13.6231 -48.0234 12.4898 -46.5884 12.4898ZM-24.397 14.0008L-19.8581 14.0138C-20.023 12.8841 -20.9658 12.4355 -22.0451 12.4355C-23.1244 12.4355 -24.0613 12.9396 -24.397 14.0008Z" fill="black"/>
</g>
<defs>
<clipPath id="clip0_672_23059">
<rect width="95.3605" height="28.0816" fill="white" transform="translate(-79.1904)"/>
</clipPath>
</defs>
</svg>
