<svg width="106" height="33" viewBox="0 0 106 33" fill="none" xmlns="http://www.w3.org/2000/svg">
<path d="M20.1853 6.61462V28.6234C20.1707 28.6265 20.1561 28.6297 20.1411 28.6329C17.969 29.0916 15.7238 28.2826 14.3149 26.5669L5.0306 15.2609V28.6234C3.37471 28.9133 1.69785 28.9155 0 28.6234V6.61462C0.0133513 6.61049 0.0267027 6.60667 0.0397362 6.60254C2.0755 5.99346 4.27784 6.69409 5.6241 8.33821L15.1544 19.9771V6.61462C16.741 6.19087 18.4214 6.2074 20.1853 6.61462Z" fill="black"/>
<path d="M25.9352 27.7542C24.6235 27.0075 23.5983 25.9709 22.8602 24.645C22.1214 23.3194 21.7527 21.8151 21.7527 20.1312C21.7527 18.448 22.1214 16.9431 22.8602 15.6175C23.5983 14.2916 24.6235 13.2556 25.9352 12.5083C27.2468 11.7615 28.7281 11.3877 30.3799 11.3877C32.031 11.3877 33.5079 11.7615 34.81 12.5083C36.1114 13.2553 37.1315 14.2916 37.8703 15.6175C38.6084 16.9431 38.9778 18.448 38.9778 20.1312C38.9778 21.8151 38.6084 23.3194 37.8703 24.645C37.1315 25.9709 36.1114 27.0075 34.81 27.7542C33.5079 28.5016 32.031 28.8748 30.3799 28.8748C28.7281 28.8748 27.2468 28.5016 25.9352 27.7542ZM33.2507 23.5559C33.9984 22.7036 34.3729 21.5624 34.3729 20.1309C34.3729 18.7001 33.9984 17.5582 33.2507 16.706C32.5024 15.8537 31.5456 15.4277 30.3799 15.4277C29.2142 15.4277 28.2522 15.8537 27.4944 16.706C26.7366 17.5582 26.3576 18.7001 26.3576 20.1309C26.3576 21.5621 26.7366 22.7036 27.4944 23.5559C28.2522 24.4081 29.2142 24.8341 30.3799 24.8341C31.5456 24.8341 32.5024 24.4081 33.2507 23.5559Z" fill="black"/>
<path d="M61.999 8.6068C61.4637 8.11153 61.196 7.49673 61.196 6.76336C61.196 6.03031 61.4637 5.41551 61.999 4.91992C62.5344 4.42465 63.228 4.1767 64.0806 4.1767C64.9325 4.1767 65.6268 4.41448 66.1621 4.89036C66.6974 5.36624 66.9648 5.96069 66.9648 6.67435C66.9648 7.44746 66.6971 8.08674 66.1621 8.59218C65.6268 9.09762 64.9328 9.35034 64.0806 9.35034C63.228 9.35003 62.5344 9.10239 61.999 8.6068Z" fill="black"/>
<path d="M61.7935 11.7081C61.8071 11.7046 61.8211 11.7015 61.8348 11.6983C64.3191 11.1064 66.6982 13.0179 66.6982 15.5715V28.6234C65.0633 28.9705 63.4284 28.9705 61.7935 28.6234V11.7081Z" fill="black"/>
<path d="M84.2401 13.343C85.5291 14.6006 86.1738 16.4666 86.1738 18.9395V28.6233C84.5567 28.9622 82.9215 28.9549 81.2691 28.6233V19.6941C81.2691 18.353 80.9754 17.3519 80.3889 16.6917C79.8017 16.0314 78.953 15.7011 77.8423 15.7011C76.6054 15.7011 75.6202 16.0839 74.8868 16.8487C74.1528 17.6142 73.7863 18.751 73.7863 20.26V28.6233C72.269 28.9854 70.6243 28.9555 68.8816 28.6233V11.7081C70.4367 11.3715 71.9985 11.374 73.5663 11.7081V13.6889C74.2158 12.9765 75.0229 12.4262 75.9874 12.0384C76.9512 11.6509 78.0098 11.4567 79.1628 11.4567C81.258 11.4567 82.9511 12.0855 84.2401 13.343Z" fill="black"/>
<path d="M105.069 21.549H92.2729C92.5033 22.5974 93.0482 23.4252 93.9078 24.0327C94.767 24.6408 95.6895 24.9444 96.9684 24.9444C100.034 24.9444 101.436 22.25 105.028 24.8779C103.435 26.7017 100.379 28.9078 97.3187 28.9078C95.4111 28.9078 93.3941 28.5025 91.927 27.7583C90.4596 27.0145 89.3276 25.982 88.5313 24.6615C87.7344 23.341 87.3367 21.8427 87.3367 20.1656C87.3367 18.51 87.7296 17.0165 88.5157 15.6852C89.3019 14.3545 90.3811 13.317 91.7541 12.5728C93.1267 11.8289 94.6624 11.4567 96.3603 11.4567C98.0158 11.4567 99.5147 11.8133 100.856 12.5257C102.197 13.2388 103.251 14.2605 104.016 15.5911C104.781 16.9225 105.164 18.468 105.164 20.2285C105.164 20.2914 105.132 20.7317 105.069 21.549ZM93.5934 16.1099C92.8387 16.7387 92.3774 17.5983 92.2099 18.688H100.542C100.374 17.6189 99.913 16.7651 99.1583 16.1255C98.4037 15.4862 97.4812 15.1664 96.3914 15.1664C95.2804 15.1664 94.348 15.4811 93.5934 16.1099Z" fill="black"/>
<path d="M45.3694 32.5C45.357 29.0398 49.4683 27.6751 50.1324 27.279C52.0321 26.1454 52.7206 24.1185 52.2613 24.3944C51.8013 24.6704 51.2688 24.8942 50.6648 25.0646C50.0599 25.2359 49.364 25.3208 48.5757 25.3208C47.4452 25.3208 46.3679 25.1304 45.343 24.7492C44.3182 24.3684 43.4176 23.8032 42.6426 23.0539C41.8669 22.305 41.2493 21.3589 40.7899 20.2155C40.3299 19.072 40.1001 17.7258 40.1001 16.1748C40.1001 14.5981 40.3821 13.2121 40.9476 12.0158C41.5125 10.8203 42.2548 9.81509 43.175 9.00002C44.0947 8.18591 45.159 7.57461 46.3682 7.16707C47.5769 6.75986 48.8125 6.55609 50.0739 6.55609C53.3589 6.55609 55.869 7.5158 57.6034 9.43394C59.3378 11.3527 60.2053 14.2303 60.2053 18.0672C60.2053 20.459 59.4745 24.2654 56.3814 27.6401C55.012 29.1335 50.1142 32.5 45.3694 32.5ZM50.0389 20.6494C51.2841 20.6494 52.274 20.2822 53.0086 19.5473C53.7429 18.8129 54.1107 17.7108 54.1107 16.2412C54.1107 14.6724 53.756 13.4711 53.0461 12.6364C52.3363 11.8022 51.3836 11.3848 50.1883 11.3848C49.0426 11.3848 48.0836 11.7714 47.3117 12.5429C46.5396 13.3151 46.1537 14.4855 46.1537 16.0543C46.1537 17.6981 46.5208 18.8749 47.2558 19.5845C47.9901 20.2943 48.9183 20.6494 50.0389 20.6494Z" fill="#A61E22"/>
<path d="M57.8684 3.94115H42.4234C42.06 2.79421 42.06 1.64726 42.4234 0.5H57.8684C58.2492 1.64726 58.2492 2.79421 57.8684 3.94115Z" fill="black"/>
</svg>
